<svg width="40" height="60" viewBox="0 0 40 60" fill="none" xmlns="http://www.w3.org/2000/svg">
<g id="Flat_Navigation_Icon_SVG_pvywdq 1">
<g id="Group">
<g id="underLocIcon">
<g id="Group_2">
<path id="Vector" d="M20.0962 59.1919C30.2505 59.1919 38.4823 57.0141 38.4823 54.3273C38.4823 51.6407 30.2505 49.4628 20.0962 49.4628C9.94208 49.4628 1.71043 51.6407 1.71043 54.3273C1.71043 57.0141 9.94208 59.1919 20.0962 59.1919Z" fill="#1FDFAE"/>
<path id="Vector_2" d="M20.0962 60C10.5362 60 0.858994 58.0525 0.858994 54.3273C0.858994 50.6024 10.5362 48.6547 20.0962 48.6547C29.6564 48.6547 39.3336 50.6024 39.3336 54.3273C39.3317 58.0525 29.6564 60 20.0962 60ZM20.0962 50.2691C9.39213 50.2691 2.55995 52.6719 2.55995 54.3273C2.55995 55.9811 9.39024 58.3858 20.0962 58.3858C30.8005 58.3858 37.6307 55.983 37.6307 54.3273C37.6307 52.6736 30.8005 50.2691 20.0962 50.2691Z" fill="#060504"/>
</g>
<g id="Group_3">
<path id="Vector_3" d="M28.1272 53.4316C31.0873 53.7092 33.0187 54.1662 33.0187 54.6821C33.0187 54.8739 32.7544 55.0566 32.273 55.225" fill="#1FDFAE"/>
<path id="Vector_4" d="M32.273 56.0331C31.9275 56.0331 31.6009 55.8307 31.4744 55.5045C31.3762 55.2519 31.4197 54.9814 31.567 54.7736C30.9099 54.6032 29.7923 54.3991 28.0423 54.236C27.5742 54.193 27.2323 53.7971 27.2797 53.3527C27.3249 52.9101 27.7439 52.5857 28.2103 52.6287C33.4321 53.1179 33.8681 53.9457 33.8681 54.684C33.8681 55.5278 32.8884 55.8719 32.5656 55.9847C32.4693 56.017 32.3693 56.0331 32.273 56.0331ZM32.3146 55.0476H32.3183H32.3146Z" fill="#060504"/>
</g>
</g>
<g id="topLocIcon">
<g id="Group_4">
<g id="Group_5">
<path id="Vector_5" d="M20 26.6718C14.9443 26.6718 10.8476 22.7818 10.8476 17.9854C10.8476 13.1889 14.9462 9.29898 20 9.29898C25.0538 9.29898 29.1523 13.1889 29.1523 17.9854C29.1523 22.7818 25.0557 26.6718 20 26.6718Z" fill="#008000"/>
</g>
</g>
<g id="Group_6">
<g id="Group_7">
<path id="Vector_6" d="M19.647 55.2287C18.8066 55.2287 18.0407 54.8297 17.5935 54.1641L16.2544 52.1695C8.26166 40.2835 0 27.9934 0 19.0149C0 8.83962 8.81626 0.559662 19.6507 0.559662C30.4851 0.559662 39.3013 8.83962 39.3013 19.0149C39.3013 27.9081 31.5721 39.4404 23.3883 51.6487C22.8281 52.4831 22.2679 53.3193 21.7078 54.1572C21.2606 54.8278 20.491 55.2287 19.647 55.2287ZM19.6507 2.12925C9.7363 2.12925 1.67125 9.70367 1.67125 19.0149C1.67125 27.5388 9.80307 39.6338 17.6659 51.3316L19.007 53.328C19.2073 53.6276 19.5209 53.6607 19.647 53.6607C19.7731 53.6607 20.0903 53.6276 20.2924 53.3245C20.8526 52.4866 21.4128 51.6487 21.9729 50.8143C30.025 38.8029 37.63 27.4569 37.63 19.0167C37.63 9.70367 29.5651 2.12925 19.6507 2.12925ZM19.6599 28.2478C17.052 28.2478 14.559 27.2896 12.7004 25.544C10.6099 23.5808 9.57862 20.8579 9.8717 18.0778C10.3299 13.7313 14.0229 10.2629 18.6508 9.83258C21.6131 9.55734 24.5086 10.5259 26.6009 12.4892C28.6914 14.4525 29.7226 17.1752 29.4297 19.9556C28.9715 24.302 25.2784 27.7705 20.6505 28.2008C20.3203 28.232 19.9883 28.2478 19.6599 28.2478ZM19.6395 11.3569C19.3651 11.3569 19.0905 11.3691 18.8159 11.3952C14.9782 11.7523 11.9158 14.6284 11.5355 18.2327C11.2925 20.5444 12.1477 22.8039 13.8838 24.4344C15.62 26.0649 18.0276 26.868 20.4872 26.6398C24.3249 26.2828 27.3874 23.4066 27.7677 19.8024C28.0107 17.4906 27.1555 15.2312 25.4194 13.6006C23.8779 12.153 21.8079 11.3569 19.6395 11.3569Z" fill="#060504"/>
</g>
</g>
<g id="Group 1">
<path id="Vector_7" d="M19.6507 1.34532C9.2596 1.34532 0.836563 9.25595 0.836563 19.0149C0.836563 28.2651 10.0553 41.4525 18.3003 53.7461C18.9273 54.6798 20.3759 54.6763 21.0011 53.7409C29.578 40.9002 38.4666 28.2878 38.4666 19.0167C38.4666 9.25594 30.0418 1.34532 19.6507 1.34532ZM20.5689 27.4203C14.8818 27.9499 10.1407 23.4972 10.7045 18.1561C11.1219 14.2034 14.5256 11.0067 18.7343 10.6148C24.4215 10.0852 29.1625 14.5378 28.5986 19.879C28.1813 23.8317 24.7776 27.0283 20.5689 27.4203Z" fill="#FF6263"/>
<g id="Group_8">
<g id="Group_9">
<path id="Vector_8" d="M25.6484 19.2036C25.1784 19.2036 24.797 18.8418 24.797 18.3956C24.797 15.8854 22.6449 13.8428 20 13.8428C19.53 13.8428 19.1485 13.4809 19.1485 13.0347C19.1485 12.5886 19.53 12.2266 20 12.2266C23.5832 12.2266 26.498 14.9931 26.498 18.3938C26.4999 18.8435 26.1186 19.2036 25.6484 19.2036Z" fill="#060504"/>
</g>
</g>
</g>
</g>
</g>
</g>
</svg>
